<?xml version="1.0" encoding="iso-8859-1"?>
<!-- Generator: Adobe Illustrator 17.1.0, SVG Export Plug-In . SVG Version: 6.00 Build 0)  -->
<!DOCTYPE svg PUBLIC "-//W3C//DTD SVG 1.1//EN" "http://www.w3.org/Graphics/SVG/1.1/DTD/svg11.dtd">
<svg version="1.1" id="Capa_1" xmlns="http://www.w3.org/2000/svg" xmlns:xlink="http://www.w3.org/1999/xlink" x="0px" y="0px"
	 viewBox="0 0 483.883 483.883" style="enable-background:new 0 0 483.883 483.883;" xml:space="preserve">
<g>
	<path style="fill:#ffffff;" d="M291.751,340.237c-9.364,0-16.983,7.619-16.983,16.983c0,9.364,7.618,16.982,16.983,16.982
		c9.364,0,16.982-7.618,16.982-16.982C308.733,347.856,301.115,340.237,291.751,340.237z"/>
	<path style="fill:#ffffff;" d="M353.804,340.237c-9.364,0-16.982,7.619-16.982,16.983c0,9.364,7.618,16.982,16.982,16.982
		c9.364,0,16.982-7.618,16.982-16.982C370.786,347.856,363.168,340.237,353.804,340.237z"/>
	<path style="fill:#ffffff;" d="M415.857,340.237c-9.364,0-16.983,7.619-16.983,16.983c0,9.364,7.619,16.982,16.983,16.982
		c9.363,0,16.982-7.618,16.982-16.982C432.839,347.856,425.221,340.237,415.857,340.237z"/>
	<path style="fill:#ffffff;" d="M435.032,308.37H272.733c-30.132,0-48.851,18.719-48.851,48.851c0,30.132,18.719,48.85,48.851,48.85h162.299
		c30.132,0,48.851-18.718,48.851-48.85C483.883,327.088,465.164,308.37,435.032,308.37z M435.032,386.07H272.733
		c-19.144,0-28.851-9.706-28.851-28.85c0-19.143,9.707-28.851,28.851-28.851h162.299c19.144,0,28.851,9.707,28.851,28.851
		C463.883,376.364,454.176,386.07,435.032,386.07z"/>
	<path style="fill:#ffffff;" d="M229.154,294.399h61.978h25.401h97.344c15.067,0,27.325-12.259,27.325-27.326V135.359
		c0-15.066-12.258-27.323-27.325-27.323h-100.42c-14.503,0-28.664,11.516-31.654,25.705l-13.354,48.749l-0.077,0.321
		c-2.519,12.335-4.567,32.612-4.567,45.201v13.065L82.842,80.895c-2.246-1.987-5.17-3.082-8.233-3.082
		c-3.309,0-6.519,1.312-8.807,3.601l-7.803,7.803c-4.564,4.563-4.796,12.208-0.518,17.041l0.053,0.06v142.369
		C25.383,251.244,0,278.206,0,311.001c0,34.48,28.052,62.532,62.533,62.532s62.533-28.052,62.533-62.532
		c0-32.796-25.384-59.757-57.533-62.315V117.614L218.77,288.472C219.567,289.372,224.534,294.399,229.154,294.399z M163.55,165.691
		l40.98,36.274l-58.754-18.5L163.55,165.691z M84.85,122.09l-15.634-17.662l26.395,6.9L84.85,122.09z M106.177,114.905
		l33.543,29.691l-45.381-17.853L106.177,114.905z M154.1,161.001l-18.464,18.464l-34.94-39.473L154.1,161.001z M209.306,213.954
		l-22.885,22.885l-36.928-41.718L209.306,213.954z M220.925,216.477l33.47,29.627l-55.961-7.135L220.925,216.477z M322.403,189.655
		c1.217-2.88,1.239-6.06,0.064-8.955c-1.176-2.893-3.408-5.157-6.289-6.374c-1.45-0.612-2.98-0.923-4.546-0.923
		c-4.716,0-8.946,2.807-10.779,7.15l-8.124,19.242c-1.961-1.902-2.84-4.757-2.283-7.971l11.961-47.729l0.066-0.303
		c1.246-6.709,8.063-12.377,14.886-12.377h88.407c6.477,0,11.745,5.269,11.745,11.745v47.33c0,6.477-5.268,11.745-11.745,11.745
		h-88.674L322.403,189.655z M74.608,87.813c0.62,0,1.19,0.202,1.606,0.57L88.299,99.08L67.67,93.687l5.202-5.202
		C73.299,88.058,73.932,87.813,74.608,87.813z M197.078,248.877l51.91,6.619l-24.428,24.428L197.078,248.877z"/>
</g>
<g>
</g>
<g>
</g>
<g>
</g>
<g>
</g>
<g>
</g>
<g>
</g>
<g>
</g>
<g>
</g>
<g>
</g>
<g>
</g>
<g>
</g>
<g>
</g>
<g>
</g>
<g>
</g>
<g>
</g>
</svg>
