<?xml version="1.0" encoding="iso-8859-1"?>
<!-- Generator: Adobe Illustrator 16.0.0, SVG Export Plug-In . SVG Version: 6.00 Build 0)  -->
<!DOCTYPE svg PUBLIC "-//W3C//DTD SVG 1.1//EN" "http://www.w3.org/Graphics/SVG/1.1/DTD/svg11.dtd">
<svg version="1.1" id="Capa_1" xmlns="http://www.w3.org/2000/svg" xmlns:xlink="http://www.w3.org/1999/xlink" x="0px" y="0px"
	 width="193.064px" height="193.064px" viewBox="0 0 193.064 193.064" style="enable-background:new 0 0 193.064 193.064;"
	 xml:space="preserve">
<g>
	<path style="fill:#ffffff;" d="M181.016,103.917c-3.479-3.922-12.233-14.429-19.252-16.104c1.061-1.826,1.646-3.776,0.712-5.923
		c-0.01-0.023-0.033-0.04-0.045-0.063c1.906-0.966,3.039-3.626,1.134-5.703c-16.368-17.846-34.083-34.431-50.838-51.914
		c-1.448-1.511-3.688-1.283-5.164,0c-1.711,1.486-3.318,3.079-4.986,4.609c-0.373-0.61-0.946-1.118-1.776-1.361
		c-13.54-3.971-32.427-39.31-48.958-21.343c-12.973,14.097,19.029,34.94,30.301,42.789C75.205,56.119,68.34,63.409,61.24,70.457
		c-0.846,0.84-0.766,2.009-0.248,2.906c-0.718,0.74-1.019,1.808-0.263,2.855c0.849,1.176,1.775,2.258,2.709,3.332
		c-4.574,3.823-11.162,6.53-9.174,13.987c0.436,1.634,1.129,3.07,1.921,4.432c-10.224,6.896-22.265,16.5-23.152,29.591
		c-0.132,1.954,0.151,3.848,0.699,5.689c-0.353-0.078-0.737-0.062-1.145,0.091c-0.263,0.098-0.489,0.157-0.704,0.329
		c-2.787,2.216-4.188,7.005-6.955,9.838c-3.827,3.918-6.889,8.355-10.083,12.793c-6.916,9.605-11.606,19.15-14.728,30.578
		c-0.49,1.793,0.591,4.228,2.588,4.559c27.577,4.583,34.583-19.425,52.638-34.307c0.177-0.146,0.251-0.325,0.384-0.485
		c0.925,0.656,1.822,1.291,2.642,1.88c1.34,0.965,3.172,0.424,4.295-0.554c9.32-8.12,16.466-18.265,25.513-26.651
		c1.29,0.896,2.621,1.67,4.046,2.123c7.799,2.479,12.842-5.484,17.15-10.943c2.376,1.541,4.816,2.523,7.253,2.514
		c1.292-0.006,2.278-0.883,2.672-1.963c8.549,0.736,16.794-5.743,23.143-11.896c9.463,12.356,40.807,40.133,49.679,19.188
		C196.077,120.994,186.679,110.306,181.016,103.917z M171.475,104.248c3.818,3.613,8.763,8.394,11.827,13.649
		c-8.52-8.103-17.496-15.802-26.072-23.841c0.151-0.203,0.312-0.398,0.463-0.602C161.368,97.471,167.454,100.445,171.475,104.248z
		 M97.181,33.807c-0.673,0.648-1.322,1.32-1.985,1.978c-0.036-0.197-0.104-0.4-0.226-0.606c-0.925-1.564-2.02-3.048-3.213-4.473
		C93.491,32.106,95.352,33.324,97.181,33.807z M61.936,9.074c0.801-0.026,1.611,0.077,2.424,0.236
		c4.026,3.86,8.07,7.702,12.041,11.618c5.36,5.286,10.185,11.432,15.863,16.339c0.314,0.272,0.671,0.389,1.024,0.419
		c-0.895,0.902-1.802,1.792-2.699,2.691C82.105,28.801,69.841,18.42,57.301,11.34C57.798,10.037,59.164,9.163,61.936,9.074z
		 M68.638,29.475c-1.957-1.869-9.396-9.464-11.188-14.842C68.428,23.331,77.78,33.368,87.718,43.24
		c-0.666,0.679-1.357,1.331-2.021,2.013C80.179,39.836,74.232,34.816,68.638,29.475z M8.657,184.654
		c0.658-1.953,1.396-3.834,2.169-5.691c0.719,0.6,1.454,1.135,1.949,1.564c0.929,0.807,2.193,2.113,3.54,3.077
		C13.983,184.322,11.466,184.729,8.657,184.654z M20.356,181.914c-1.217-1.496-3.38-2.576-4.871-3.662
		c-1.016-0.739-2.042-1.465-3.035-2.234c-0.072-0.055-0.148-0.113-0.219-0.174c0.899-1.941,1.885-3.84,2.916-5.723
		c1.308,2.076,2.673,3.994,4.284,5.888c0.634,0.743,2.154,2.543,3.838,4.005C22.319,180.684,21.38,181.373,20.356,181.914z
		 M26.467,177.453c-1.332-0.92-2.605-1.949-3.802-3.016c-2.106-1.876-4.288-3.77-6.297-5.732c-0.108-0.105-0.236-0.11-0.359-0.15
		c0.969-1.695,2.015-3.376,3.104-5.051c-0.121,0.418-0.066,0.875,0.315,1.215c2.317,2.074,4.42,4.345,6.518,6.636
		c0.966,1.056,2.002,2.366,3.152,3.509C28.241,175.762,27.371,176.638,26.467,177.453z M31.861,171.802
		c-1.186-1.014-2.472-1.951-3.485-2.876c-2.385-2.177-4.775-4.324-7.364-6.261c-0.472-0.353-0.983-0.252-1.369,0.051
		c0.574-0.865,1.132-1.73,1.744-2.594c0.563-0.795,1.245-1.653,1.979-2.547c1.98,3.08,4.954,5.787,7.795,7.994
		c1.107,0.86,2.424,1.873,3.827,2.439C33.953,169.294,32.916,170.57,31.861,171.802z M37.475,164.919
		c0.135-0.115-1.511-0.982-1.767-1.113c-1.171-0.602-2.264-1.355-3.341-2.107c-2.647-1.848-4.944-3.975-7.338-6.111
		c1.374-1.619,2.852-3.358,4.269-5.155c1.835,1.765,3.721,3.487,5.578,5.224c1.813,1.693,3.782,3.801,6.007,5.166
		C39.726,162.169,38.589,163.537,37.475,164.919z M43.677,157.724c-2.096-1.945-4.914-3.482-7.096-5.197
		c-1.846-1.451-3.676-2.964-5.579-4.357c1.062-1.477,2-2.985,2.785-4.498c1.735,2.255,3.543,4.439,5.498,6.516
		c1.819,1.932,3.88,4.368,6.326,5.635C44.959,156.449,44.302,157.066,43.677,157.724z M48.565,153.223
		c-1.547-2.317-4.378-4.036-6.411-5.908c-2.366-2.179-4.61-4.504-6.74-6.913c-0.06-0.068-0.133-0.094-0.198-0.146
		c0.243-0.823,0.423-1.643,0.497-2.457c3.175,5.52,8.673,10.396,14.012,14.464C49.322,152.562,48.956,152.908,48.565,153.223z
		 M59.871,150.914c-9.435-6.744-23.914-17.215-17.955-29.77c3.839-8.089,13.089-11.871,16.331-20.212
		c4.398,5.312,10.988,8.965,15.587,14.213c2.795,3.187,5.781,7.685,9.194,11.502C74.684,134.139,68.056,143.258,59.871,150.914z
		 M91.232,124.357c-4.159-3.669-7.541-8.344-11.047-12.611c-3.781-4.604-8.395-7.998-12.991-11.748
		c-4.447-3.626-7.804-8.309-3.16-13.789c0.944-1.113,1.893-2.07,2.695-3.19c8.04,7.823,17.919,13.48,25.646,21.811
		c3.019,3.252,7.133,8.865,11.736,13.35C100.598,122.865,96.8,129.269,91.232,124.357z M117.766,117.708
		c-0.45,0.084-0.792,0.307-1.083,0.578c-6.526-6.059-13.29-11.668-19.469-18.295c-9.535-10.228-22.037-16.834-32.107-26.537
		c15.474-11.914,28.381-26.592,42.696-39.815c3.804-3.514,44.926,41.574,50.546,47.291c-2.029,0.842-3.186,2.974-4.521,4.821
		c-3.176,4.396-6.629,8.576-10.181,12.671C136.718,106.414,128.641,115.71,117.766,117.708z M166.435,123.326
		c-7.029-4.896-13.72-10.386-20.276-15.922c0.143-0.148,0.292-0.302,0.433-0.447c0.683-0.709,1.294-1.489,1.955-2.223
		c3.841,5.188,8.281,9.74,13.072,14.068c1.675,1.513,3.403,3.143,5.174,4.768C166.671,123.486,166.523,123.388,166.435,123.326z
		 M166.841,118.462c-6.123-4.598-11.919-9.496-16.855-15.367c0.778-0.9,1.526-1.828,2.285-2.745
		c5.029,5.937,10.3,11.687,15.688,17.293c1.783,1.854,3.644,3.851,5.606,5.765C171.325,121.69,168.993,120.078,166.841,118.462z
		 M169.212,113.059c-5.139-4.851-10.007-9.996-15.32-14.657c0.435-0.543,0.844-1.107,1.271-1.657
		c9.13,11.155,20.396,20.974,30.856,30.76c-0.01,0.062-0.012,0.135-0.024,0.195C181.074,122.363,174.528,118.078,169.212,113.059z"
		/>
</g>
<g>
</g>
<g>
</g>
<g>
</g>
<g>
</g>
<g>
</g>
<g>
</g>
<g>
</g>
<g>
</g>
<g>
</g>
<g>
</g>
<g>
</g>
<g>
</g>
<g>
</g>
<g>
</g>
<g>
</g>
</svg>
