<?xml version="1.0" encoding="iso-8859-1"?>
<!-- Generator: Adobe Illustrator 18.0.0, SVG Export Plug-In . SVG Version: 6.00 Build 0)  -->
<!DOCTYPE svg PUBLIC "-//W3C//DTD SVG 1.1//EN" "http://www.w3.org/Graphics/SVG/1.1/DTD/svg11.dtd">
<svg version="1.1" id="Capa_1" xmlns="http://www.w3.org/2000/svg" xmlns:xlink="http://www.w3.org/1999/xlink" x="0px" y="0px"
	 viewBox="0 0 489.273 489.273" style="enable-background:new 0 0 489.273 489.273;" xml:space="preserve">
<g>
	<path style="fill:#ffffff;" d="M292.898,34.685H192.006c-2.348,0-4.25,1.903-4.25,4.25c0,2.347,1.902,4.25,4.25,4.25h100.893
		c2.348,0,4.25-1.903,4.25-4.25C297.148,36.588,295.246,34.685,292.898,34.685z"/>
	<path style="fill:#ffffff;" d="M292.898,62.011H192.006c-2.348,0-4.25,1.903-4.25,4.25c0,2.347,1.902,4.25,4.25,4.25h100.893
		c2.348,0,4.25-1.903,4.25-4.25C297.148,63.914,295.246,62.011,292.898,62.011z"/>
	<path style="fill:#ffffff;" d="M292.898,91.438H192.006c-2.348,0-4.25,1.903-4.25,4.25c0,2.347,1.902,4.25,4.25,4.25h100.893
		c2.348,0,4.25-1.903,4.25-4.25C297.148,93.34,295.246,91.438,292.898,91.438z"/>
	<path style="fill:#ffffff;" d="M292.898,118.763H192.006c-2.348,0-4.25,1.903-4.25,4.25c0,2.347,1.902,4.25,4.25,4.25h100.893
		c2.348,0,4.25-1.903,4.25-4.25C297.148,120.665,295.246,118.763,292.898,118.763z"/>
	<path style="fill:#ffffff;" d="M461.053,16.119H384.15c-9.038,0-16.607,6.36-18.497,14.837c-0.315-0.075-0.64-0.124-0.978-0.124H332.75V18.964
		C332.75,8.507,324.243,0,313.787,0H175.191c-10.457,0-18.965,8.507-18.965,18.964v11.868h-31.628c-0.338,0-0.663,0.05-0.979,0.124
		c-1.89-8.476-9.459-14.837-18.497-14.837H28.221c-10.456,0-18.963,8.507-18.963,18.963v27.325c0,10.457,8.507,18.964,18.963,18.964
		h76.902c9.038,0,16.607-6.361,18.497-14.838c0.315,0.075,0.641,0.124,0.979,0.124h31.628v179.804
		c0,10.457,8.508,18.964,18.965,18.964h21.66v24.692c0,10.457,8.507,18.964,18.963,18.964h6.523v156.842
		c0,1.071,0.404,2.102,1.132,2.888l17.688,19.101c0.804,0.869,1.935,1.362,3.118,1.362c1.184,0,2.313-0.494,3.118-1.362
		l17.689-19.101c0.728-0.786,1.132-1.817,1.132-2.888V309.081h6.948c10.456,0,18.963-8.507,18.963-18.964v-24.692h21.662
		c10.456,0,18.963-8.507,18.963-18.964V66.657h31.926c0.338,0,0.662-0.049,0.978-0.124c1.891,8.477,9.459,14.838,18.497,14.838
		h76.902c10.456,0,18.963-8.507,18.963-18.964V35.082C480.016,24.626,471.509,16.119,461.053,16.119z M115.586,62.407
		c0,5.77-4.693,10.464-10.463,10.464h-8.627V51.196c0-2.347-1.902-4.25-4.25-4.25c-2.348,0-4.25,1.903-4.25,4.25v21.675H70.923
		V51.196c0-2.347-1.902-4.25-4.25-4.25c-2.348,0-4.25,1.903-4.25,4.25v21.675H45.348V51.196c0-2.347-1.902-4.25-4.25-4.25
		c-2.348,0-4.25,1.903-4.25,4.25v21.675h-8.627c-5.77,0-10.463-4.694-10.463-10.464V35.082c0-5.769,4.693-10.463,10.463-10.463
		h76.902c5.77,0,10.463,4.694,10.463,10.463V62.407z M257.714,464.257l-13.438,14.511l-13.438-14.511V309.453h26.876V464.257z
		 M124.599,58.157c-0.176,0-0.343,0.031-0.513,0.052V39.28c0.17,0.021,0.337,0.052,0.513,0.052h31.628v18.825H124.599z
		 M283.625,290.117c0,5.77-4.693,10.464-10.463,10.464h-57.348c-5.77,0-10.463-4.694-10.463-10.464v-24.692h78.274V290.117z
		 M324.25,246.461c0,5.77-4.693,10.464-10.463,10.464h-96.862v-36.872c0-2.347-1.902-4.25-4.25-4.25c-2.348,0-4.25,1.903-4.25,4.25
		v36.872h-20.226v-64.197c0-2.347-1.902-4.25-4.25-4.25s-4.25,1.903-4.25,4.25v64.197h-4.508c-5.77,0-10.465-4.694-10.465-10.464
		V18.964c0-5.77,4.694-10.464,10.465-10.464h138.596c5.77,0,10.463,4.694,10.463,10.464V246.461z M332.75,58.157V39.332h31.926
		c0.176,0,0.342-0.031,0.512-0.052v18.929c-0.17-0.021-0.336-0.052-0.512-0.052H332.75z M471.516,62.407
		c0,5.77-4.693,10.464-10.463,10.464h-8.627V51.196c0-2.347-1.902-4.25-4.25-4.25c-2.348,0-4.25,1.903-4.25,4.25v21.675h-17.074
		V51.196c0-2.347-1.902-4.25-4.25-4.25c-2.348,0-4.25,1.903-4.25,4.25v21.675h-17.074V51.196c0-2.347-1.902-4.25-4.25-4.25
		c-2.348,0-4.25,1.903-4.25,4.25v21.675h-8.627c-5.77,0-10.463-4.694-10.463-10.464V35.082c0-5.769,4.693-10.463,10.463-10.463
		h76.902c5.77,0,10.463,4.694,10.463,10.463V62.407z"/>
</g>
<g>
</g>
<g>
</g>
<g>
</g>
<g>
</g>
<g>
</g>
<g>
</g>
<g>
</g>
<g>
</g>
<g>
</g>
<g>
</g>
<g>
</g>
<g>
</g>
<g>
</g>
<g>
</g>
<g>
</g>
</svg>
