<?xml version="1.0" encoding="iso-8859-1"?>
<!-- Generator: Adobe Illustrator 16.0.0, SVG Export Plug-In . SVG Version: 6.00 Build 0)  -->
<!DOCTYPE svg PUBLIC "-//W3C//DTD SVG 1.1//EN" "http://www.w3.org/Graphics/SVG/1.1/DTD/svg11.dtd">
<svg version="1.1" id="Capa_1" xmlns="http://www.w3.org/2000/svg" xmlns:xlink="http://www.w3.org/1999/xlink" x="0px" y="0px"
	 width="98.068px" height="98.068px" viewBox="0 0 98.068 98.068" style="enable-background:new 0 0 98.068 98.068;"
	 xml:space="preserve">
<g>
	<g>
		<rect style="fill:#ffffff;" x="54.822" y="75.36" width="8.79" height="2.929"/>
		<path style="fill:#ffffff;" d="M81.598,84.51c-0.913-17.67-6.685-27.836-13.01-33.283v-4.927l-3.65-2.634c0.595-1.103,1.139-2.267,1.615-3.5
			c3.366-0.294,5.227-3.584,5.901-7.535c0.8-4.667-0.878-6.944-3.828-7.454c-0.056-0.601-0.118-1.194-0.188-1.779
			c0.58-0.494,0.896-0.799,0.896-0.799c0-0.222-0.019-0.417-0.024-0.629h-0.003c-0.28-8.782-6.362-16.104-14.62-18.451V0H43.384
			v3.525c-8.453,2.403-14.648,10.012-14.648,19.072c0,0,0.315,0.305,0.896,0.8c-0.069,0.585-0.132,1.177-0.187,1.778
			c-2.952,0.51-4.627,2.787-3.831,7.454c0.67,3.906,2.467,7.217,5.897,7.535c0.463,1.24,0.999,2.405,1.59,3.505l-3.619,2.629v4.926
			c-6.489,5.586-12.106,15.713-13.011,33.283c-0.191,3.699,2.296,6.875,5.554,7.092c0.119,0.008,6.382,0.324,6.382,0.324
			c3.89,4.42,11.906,6.145,20.768,6.145c9.404,0,16.779-2.062,20.493-6.145c0,0,6.26-0.316,6.376-0.324
			C79.302,91.383,81.788,88.208,81.598,84.51z M47.183,5.707V3.8h3.705v1.906v6.529h-3.705V5.707z M32.852,19.445
			c1.133-5.54,5.192-10.058,10.531-11.962v7.759v0.792h11.304v-0.396v-8.15c5.338,1.905,9.399,6.418,10.531,11.957
			c-1.183,0.177-2.643,0.373-4.307,0.557c-3.302,0.364-7.425,0.675-11.878,0.675c-4.479,0-8.623-0.315-11.935-0.682
			C35.46,19.814,34.02,19.619,32.852,19.445z M49.035,27.611c-4.736,0-9.119-1.913-12.337-3.836
			c3.422,0.377,7.69,0.701,12.337,0.701c4.663,0,8.947-0.326,12.374-0.706C58.202,25.696,53.817,27.611,49.035,27.611z
			 M58.167,32.419c0,1.447-1.18,2.625-2.625,2.625h-1.159c-1.447,0-2.625-1.178-2.625-2.625c0-0.452,0.125-0.871,0.327-1.243
			c1.618-0.224,3.18-0.594,4.648-1.082C57.579,30.531,58.167,31.404,58.167,32.419z M46.314,32.419c0,1.447-1.178,2.625-2.625,2.625
			H42.53c-1.447,0-2.625-1.178-2.625-2.625c0-1.016,0.586-1.888,1.432-2.324c1.471,0.488,3.03,0.858,4.65,1.082
			C46.189,31.549,46.314,31.968,46.314,32.419z M44.962,92.061c-5.805-0.467-10.305-1.904-12.158-4.008l-1.74-1.854v-6.052
			c0-0.81-0.654-1.465-1.466-1.465c-0.809,0-1.464,0.655-1.464,1.465v5.9c-1.272-0.063-4.71-0.244-5.554-0.289
			c-0.104-0.125-0.282-0.44-0.255-0.949c0.747-14.543,4.939-22.656,8.978-27.149l1.18,13.253l11.679-6.289
			c-0.477,2.428,1.092,4.408,2.768,5.221L44.962,92.061z M35.007,66.221l-1.36-15.269l13.909,8.487L35.007,66.221z M49.035,48.778
			c-7.983,0-13.923-7.952-14.59-19.205c-0.057-0.953-0.032-1.843,0.048-2.687c1.395,0.848,2.994,1.699,4.759,2.433
			c-0.768,0.811-1.247,1.898-1.247,3.101c0,2.495,2.03,4.525,4.525,4.525h1.159c2.495,0,4.524-2.03,4.524-4.525
			c0-0.247-0.034-0.484-0.072-0.72h1.787c-0.037,0.236-0.072,0.473-0.072,0.72c0,2.495,2.029,4.525,4.525,4.525h1.159
			c2.494,0,4.523-2.03,4.523-4.525c0-1.202-0.479-2.29-1.246-3.101c1.736-0.723,3.314-1.558,4.693-2.392
			c0.149,1.592,0.105,3.373-0.209,5.388C61.813,41.853,56.552,48.778,49.035,48.778z M64.424,50.948l-1.359,15.274l-12.609-6.783
			L64.424,50.948z M75.491,85.76c-0.883,0.047-4.213,0.215-5.552,0.284v-5.896c0-0.809-0.657-1.465-1.466-1.465
			c-0.811,0-1.466,0.656-1.466,1.465v6.045l-0.052,0.003l-1.626,1.789c-1.979,2.176-6.42,3.628-12.224,4.077L51.14,69.846
			c1.675-0.813,2.84-2.517,2.84-4.502c0-0.248-0.037-0.48-0.072-0.72l11.679,6.285l1.182-13.258
			c4.025,4.489,8.225,12.604,8.978,27.157C75.77,85.318,75.593,85.635,75.491,85.76z"/>
	</g>
</g>
<g>
</g>
<g>
</g>
<g>
</g>
<g>
</g>
<g>
</g>
<g>
</g>
<g>
</g>
<g>
</g>
<g>
</g>
<g>
</g>
<g>
</g>
<g>
</g>
<g>
</g>
<g>
</g>
<g>
</g>
</svg>
