<?xml version="1.0" encoding="iso-8859-1"?>
<!-- Generator: Adobe Illustrator 16.0.0, SVG Export Plug-In . SVG Version: 6.00 Build 0)  -->
<!DOCTYPE svg PUBLIC "-//W3C//DTD SVG 1.1//EN" "http://www.w3.org/Graphics/SVG/1.1/DTD/svg11.dtd">
<svg version="1.1" id="Capa_1" xmlns="http://www.w3.org/2000/svg" xmlns:xlink="http://www.w3.org/1999/xlink" x="0px" y="0px"
	 width="425.268px" height="425.268px" viewBox="0 0 425.268 425.268" style="enable-background:new 0 0 425.268 425.268;"
	 xml:space="preserve">
<g>
	<g>
		<path style="fill:#ffffff;" d="M207.594,123.406c0,0,4.431-36.9-7.895-61.225c-7.169-14.147-21.447-17.498-29.49-16.025
			c-13.793,2.526-23.965,14.613-22.469,28.556C151.016,105.262,197.188,97.697,207.594,123.406z"/>
		<path style="fill:#ffffff;" d="M243.121,115.248c2.687-5.408,0.38-11.808-4.812-14.887c-3.028-1.794-9.296-2.572-14.304,2.073
			c-8.609,7.984-12.327,23.55-12.327,23.55C219.72,117.153,237.24,127.099,243.121,115.248z"/>
		<path style="fill:#ffffff;" d="M254.621,60.702c0-9.79-7.959-17.42-17.721-18.149c-5.693-0.422-15.354,2.966-19.276,13.319
			c-6.744,17.802-0.921,43.084-0.921,43.084C222.011,80.337,254.621,82.152,254.621,60.702z"/>
		<path style="fill:#ffffff;" d="M207.95,56.438c0,0,5.824-25.283-0.921-43.083c-3.923-10.354-13.583-13.743-19.276-13.32
			c-9.762,0.729-17.722,8.36-17.722,18.149C170.031,39.631,202.642,37.818,207.95,56.438z"/>
		<polygon style="fill:#ffffff;" points="244.414,133.231 180.857,133.231 178.509,156.191 250.527,192.94 		"/>
		<polygon style="fill:#ffffff;" points="179.027,276.244 262.328,308.179 253.451,221.477 		"/>
		<polygon style="fill:#ffffff;" points="267.717,360.866 264.845,332.807 220.179,360.866 		"/>
		<polygon style="fill:#ffffff;" points="167.184,266.775 247.705,207.524 176.95,171.421 		"/>
		<polygon style="fill:#ffffff;" points="157.551,360.866 192.975,360.866 256.447,320.996 165.218,286.021 		"/>
		<polygon style="fill:#ffffff;" points="141.262,374.366 141.262,397.935 161.396,397.935 161.396,425.268 179.197,425.268 179.197,397.935 
			246.07,397.935 246.07,425.268 263.872,425.268 263.872,397.935 284.006,397.935 284.006,374.366 		"/>
	</g>
</g>
<g>
</g>
<g>
</g>
<g>
</g>
<g>
</g>
<g>
</g>
<g>
</g>
<g>
</g>
<g>
</g>
<g>
</g>
<g>
</g>
<g>
</g>
<g>
</g>
<g>
</g>
<g>
</g>
<g>
</g>
</svg>
