<?xml version="1.0" encoding="iso-8859-1"?>
<!-- Generator: Adobe Illustrator 17.1.0, SVG Export Plug-In . SVG Version: 6.00 Build 0)  -->
<!DOCTYPE svg PUBLIC "-//W3C//DTD SVG 1.1//EN" "http://www.w3.org/Graphics/SVG/1.1/DTD/svg11.dtd">
<svg version="1.1" id="Capa_1" xmlns="http://www.w3.org/2000/svg" xmlns:xlink="http://www.w3.org/1999/xlink" x="0px" y="0px"
	 viewBox="0 0 196.875 196.875" style="enable-background:new 0 0 196.875 196.875;" xml:space="preserve">
<path style="fill:#ffffff;" d="M141.09,196.875c-1.166,0-2.208-0.819-2.448-2.006l-3.049-15.107h-34.654v14.613c0,1.381-1.119,2.5-2.5,2.5
	s-2.5-1.119-2.5-2.5v-14.613H61.283l-3.049,15.107c-0.273,1.353-1.59,2.227-2.945,1.956c-1.354-0.273-2.229-1.592-1.956-2.945
	l3.447-17.076c0.005-0.026,0.01-0.052,0.016-0.079l6.933-34.351h-15.29c-1.381,0-2.5-1.119-2.5-2.5v-9.333h-19.75
	c-1.381,0-2.5-1.119-2.5-2.5V33.875c0-1.381,1.119-2.5,2.5-2.5h51.123v-7.5c0-1.381,1.119-2.5,2.5-2.5h16.127V2.5
	c0-1.381,1.119-2.5,2.5-2.5s2.5,1.119,2.5,2.5v18.875h16.457c1.381,0,2.5,1.119,2.5,2.5v7.5h50.793c1.381,0,2.5,1.119,2.5,2.5
	v94.167c0,1.381-1.119,2.5-2.5,2.5h-19.75v9.333c0,1.381-1.119,2.5-2.5,2.5h-15.291l6.928,34.328
	c0.01,0.042,0.018,0.083,0.025,0.125l3.442,17.053c0.273,1.354-0.603,2.672-1.956,2.945
	C141.42,196.859,141.253,196.875,141.09,196.875z M100.938,174.762h33.646l-6.537-32.387h-27.108V174.762z M62.292,174.762h33.646
	v-32.387H68.829L62.292,174.762z M130.144,137.375h15.793v-6.833h-95v6.833h15.793c0.033-0.001,0.065-0.001,0.099,0h63.215
	C130.079,137.374,130.112,137.374,130.144,137.375z M148.438,125.542h19.75V36.375h-139.5v89.167H148.438z M82.311,31.375h32.583v-5
	H82.311V31.375z M104.192,117.069H65.808c-1.381,0-2.5-1.119-2.5-2.5V46.526c0-1.381,1.119-2.5,2.5-2.5h67.121
	c1.381,0,2.5,1.119,2.5,2.5v40.661c0,1.381-1.119,2.5-2.5,2.5h-26.237v24.882C106.692,115.95,105.573,117.069,104.192,117.069z
	 M68.308,112.069h33.384V89.626H68.308V112.069z M123.213,84.687h7.216V69.326h-7.216V84.687z M104.743,84.687h13.47V49.026H89.984
	v35.6h14.208C104.382,84.626,104.566,84.647,104.743,84.687z M68.308,84.626h16.676V62.653H68.308V84.626z M123.213,64.326h7.216
	v-15.3h-7.216V64.326z M68.308,57.653h16.676v-8.626H68.308V57.653z"/>
<g>
</g>
<g>
</g>
<g>
</g>
<g>
</g>
<g>
</g>
<g>
</g>
<g>
</g>
<g>
</g>
<g>
</g>
<g>
</g>
<g>
</g>
<g>
</g>
<g>
</g>
<g>
</g>
<g>
</g>
</svg>
