<?xml version="1.0" encoding="iso-8859-1"?>
<!-- Generator: Adobe Illustrator 17.1.0, SVG Export Plug-In . SVG Version: 6.00 Build 0)  -->
<!DOCTYPE svg PUBLIC "-//W3C//DTD SVG 1.1//EN" "http://www.w3.org/Graphics/SVG/1.1/DTD/svg11.dtd">
<svg version="1.1" id="Capa_1" xmlns="http://www.w3.org/2000/svg" xmlns:xlink="http://www.w3.org/1999/xlink" x="0px" y="0px"
	 viewBox="0 0 438.758 438.758" style="enable-background:new 0 0 438.758 438.758;" xml:space="preserve">
<g>
	<path style="fill:#ffffff;" d="M332.969,244.628l-109.126-75.567c-3.671-2.542-8.478-3.942-13.534-3.942c-5.057,0-9.863,1.4-13.534,3.942l-38.747,26.831
		v-8.453c0-4.963-4.038-9-9-9h-22.807c-4.962,0-9,4.037-9,9v33.014c0,1.163,0.228,2.262,0.639,3.255l-30.21,20.92
		c-6.142,4.253-6.465,8.236-5.655,10.828c0.81,2.593,3.344,5.684,10.814,5.684h5.452c4.411,0,8,3.589,8,8v105.286
		c0,9.925,8.075,18,18,18h172.097c9.925,0,18-8.075,18-18V269.14c0-4.411,3.589-8,8-8h5.452c7.471,0,10.004-3.091,10.815-5.684
		C339.434,252.864,339.111,248.881,332.969,244.628z M180.231,304.418c0,2.2-1.8,4-4,4h-45.319c-2.2,0-4-1.8-4-4v-36.935
		c0-2.2,1.8-4,4-4h45.319c2.2,0,4,1.8,4,4V304.418z M234.066,368.771c0,2.2-1.8,4-4,4h-39.514c-2.2,0-4-1.8-4-4v-40.259
		c0-2.2,1.8-4,4-4h39.514c2.2,0,4,1.8,4,4V368.771z M293.708,304.418c0,2.2-1.8,4-4,4h-45.319c-2.2,0-4-1.8-4-4v-36.935
		c0-2.2,1.8-4,4-4h45.319c2.2,0,4,1.8,4,4V304.418z"/>
	<path style="fill:#ffffff;" d="M400.04,0H122.79c-7.326,0-16.98,3.67-22.457,8.536L31.21,69.963c-5.697,5.063-9.993,14.628-9.993,22.249v329.046
		c0,9.649,7.851,17.5,17.5,17.5H400.04c9.649,0,17.5-7.851,17.5-17.5V17.5C417.54,7.851,409.69,0,400.04,0z M41.174,81.175
		l69.122-61.426c1.933-1.718,5.511-3.366,8.743-4.194V83.67c0,1.355-1.145,2.5-2.5,2.5H37.806
		C38.727,84.146,39.944,82.268,41.174,81.175z M402.54,421.258c0,1.355-1.145,2.5-2.5,2.5H38.717c-1.355,0-2.5-1.145-2.5-2.5V101.17
		h80.323c9.649,0,17.5-7.851,17.5-17.5V15h266c1.355,0,2.5,1.145,2.5,2.5V421.258z"/>
	<path style="fill:#ffffff;" d="M87.309,145.267v-1.73h230.555v1.73c0,4.143,3.358,7.5,7.5,7.5c4.143,0,7.5-3.357,7.5-7.5v-18.086
		c0-4.143-3.357-7.5-7.5-7.5c-4.142,0-7.5,3.357-7.5,7.5v1.356H87.309v-1.356c0-4.143-3.358-7.5-7.5-7.5c-4.142,0-7.5,3.357-7.5,7.5
		v18.086c0,4.143,3.358,7.5,7.5,7.5C83.951,152.767,87.309,149.409,87.309,145.267z"/>
	<path style="fill:#ffffff;" d="M377.568,173.734c4.143,0,7.5-3.357,7.5-7.5c0-4.143-3.357-7.5-7.5-7.5h-7.459c-0.511-0.11-1.04-0.171-1.584-0.171
		s-1.073,0.061-1.584,0.171h-7.459c-4.143,0-7.5,3.357-7.5,7.5c0,4.143,3.357,7.5,7.5,7.5h1.543v209.622h-1.543
		c-4.143,0-7.5,3.357-7.5,7.5c0,4.142,3.357,7.5,7.5,7.5h18.086c4.143,0,7.5-3.358,7.5-7.5c0-4.143-3.357-7.5-7.5-7.5h-1.543
		V173.734H377.568z"/>
</g>
<g>
</g>
<g>
</g>
<g>
</g>
<g>
</g>
<g>
</g>
<g>
</g>
<g>
</g>
<g>
</g>
<g>
</g>
<g>
</g>
<g>
</g>
<g>
</g>
<g>
</g>
<g>
</g>
<g>
</g>
</svg>
