<?xml version="1.0" encoding="iso-8859-1"?>
<!-- Generator: Adobe Illustrator 18.1.1, SVG Export Plug-In . SVG Version: 6.00 Build 0)  -->
<svg version="1.1" id="Capa_1" xmlns="http://www.w3.org/2000/svg" xmlns:xlink="http://www.w3.org/1999/xlink" x="0px" y="0px"
	 viewBox="0 0 480 480" style="enable-background:new 0 0 480 480;" xml:space="preserve">
<path style="fill:#ffffff;" d="M380.357,0H99.646C44.701,0,0,44.7,0,99.643v280.7C0,435.294,44.701,480,99.646,480h280.711
	C435.3,480,480,435.294,480,380.344v-280.7C480,44.7,435.3,0,380.357,0z M461.772,380.344c0,44.9-36.524,81.429-81.415,81.429
	H99.646c-44.894,0-81.418-36.529-81.418-81.429v-280.7c0-44.893,36.524-81.415,81.418-81.415h280.711
	c44.892,0,81.415,36.523,81.415,81.415V380.344z M293.381,247.339c0.568,9.708-6.843,18.039-16.552,18.607l-41.483,2.426
	c-0.344,0.021-0.687,0.03-1.029,0.03c-4.333,0-8.528-1.599-11.769-4.511l-23.784-21.374l-20.534,46.336
	c-0.202,0.454-0.431,0.888-0.65,1.329l17.815,16.245c3.613,3.293,5.693,7.94,5.744,12.828l0.696,66.385
	c0.102,9.724-7.698,17.691-17.423,17.793c-0.062,0.001-0.125,0.001-0.188,0.001c-9.64,0-17.504-7.763-17.604-17.425l-0.616-58.72
	l-20.286-18.499c-1.67-0.09-3.343-0.305-5.008-0.651l-6.084,22.791c-0.594,2.234-1.623,4.327-3.028,6.162L98.068,380.9
	c-5.909,7.724-16.963,9.194-24.685,3.282c-7.725-5.911-9.193-16.963-3.282-24.687l31.399-41.028l12.757-47.799
	c0.419-3.043,1.258-6.08,2.564-9.028l25.576-57.713c7.516-16.958,27.254-24.371,44.312-17.096c4.778,2.037,8.322,4.981,9.231,5.798
	l44.686,40.156l34.149-1.997C284.426,230.221,292.816,237.629,293.381,247.339z M231.021,143.014l34.876,15.897
	c-4.572,11.83-13.82,21.821-26.502,26.958c-24.351,9.867-52.085-1.893-61.945-26.232c-1.549-3.825-2.564-7.735-3.084-11.644
	c0,0,14.933,6.868,15.691,7.212c3.959,1.803,13.509,5.236,23.651,2.069C220.716,155.086,226.521,150.298,231.021,143.014z
	 M193.745,144.536l-19.386-8.855c2.136-16.465,12.823-31.332,29.304-38.01c24.352-9.865,52.095,1.887,61.964,26.247
	c1.548,3.821,2.549,7.725,3.065,11.632l16.923,7.713l-4.651,10.202l-55.069-25.106l-2.368,4.983
	c-3.356,7.07-7.757,11.513-13.078,13.204C202.17,149.18,193.806,144.569,193.745,144.536z M98.123,268.008L63.79,252.098
	c-3.446-1.596-4.945-5.687-3.348-9.133l39.63-85.514c1.599-3.448,5.69-4.947,9.136-3.349l14.037,6.504l-9.776,21.09l-7.989-3.7
	l-7.374,15.917l7.987,3.703l-2.291,4.941l6.258,2.903l2.292-4.943l7.989,3.703l7.376-15.919l-7.989-3.7l9.774-21.091l14.035,6.506
	c3.447,1.598,4.947,5.687,3.349,9.133l-39.63,85.514C105.66,268.106,101.569,269.607,98.123,268.008z M106.489,192.478l3.327-7.18
	l1.636,0.758l-3.327,7.18L106.489,192.478z M114.386,196.139l3.327-7.177l1.635,0.758l-3.327,7.177L114.386,196.139z
	 M417.303,105.584c0,0,9.94,37.808-7.023,75.616c-56.317-21.302-78.161-30.571-134.478-51.873c0,0,1.175-2.773,1.303-12.31
	L417.303,105.584z"/>
<g>
</g>
<g>
</g>
<g>
</g>
<g>
</g>
<g>
</g>
<g>
</g>
<g>
</g>
<g>
</g>
<g>
</g>
<g>
</g>
<g>
</g>
<g>
</g>
<g>
</g>
<g>
</g>
<g>
</g>
</svg>
