<?xml version="1.0" encoding="iso-8859-1"?>
<!-- Generator: Adobe Illustrator 16.0.0, SVG Export Plug-In . SVG Version: 6.00 Build 0)  -->
<!DOCTYPE svg PUBLIC "-//W3C//DTD SVG 1.1//EN" "http://www.w3.org/Graphics/SVG/1.1/DTD/svg11.dtd">
<svg version="1.1" id="Capa_1" xmlns="http://www.w3.org/2000/svg" xmlns:xlink="http://www.w3.org/1999/xlink" x="0px" y="0px"
	 width="79.536px" height="79.536px" viewBox="0 0 79.536 79.536" style="enable-background:new 0 0 79.536 79.536;"
	 xml:space="preserve">
<g>
	<path style="fill:#ffffff;" d="M60.595,69.325c0.01,0.099,0.083,0.171,0.083,0.27c0,3.5-9.093,6.327-20.312,6.327
		c-11.001,0-19.899-2.718-20.254-6.11h-0.07V58.7h0.055c0.303,3.417,9.225,6.136,20.265,6.136c10.923,0,19.752-2.672,20.229-6.032
		v10.521H60.595z M40.361,50.476c-11.219,0-20.319,2.817-20.319,6.317c0,0.057,0.049,0.109,0.055,0.166
		c0.303,3.418,9.225,6.136,20.265,6.136c10.923,0,19.752-2.672,20.229-6.027c0.005-0.108,0.088-0.191,0.088-0.284
		C60.678,53.293,51.585,50.476,40.361,50.476z M5.678,46.241l15.032,3.034l-5.152-16.917l11.592,6.507l2.889-18.013l7.715,15.6
		l9.579-11.467l2.579,16.481l14.597-8.684L63.22,50.581l7.302-1.73l-3.506,16.343l12.521-25.028l-12.111,4.093l3.65-22.571
		L52.791,36.045l-0.409-25.448L39.38,27.835L27.595,3.615l-3.876,29.624L7.578,22.794l8.41,22.576L0,40.7l13.782,24.493
		L5.678,46.241z"/>
</g>
<g>
</g>
<g>
</g>
<g>
</g>
<g>
</g>
<g>
</g>
<g>
</g>
<g>
</g>
<g>
</g>
<g>
</g>
<g>
</g>
<g>
</g>
<g>
</g>
<g>
</g>
<g>
</g>
<g>
</g>
</svg>
