<?xml version="1.0" encoding="iso-8859-1"?>
<!-- Generator: Adobe Illustrator 18.0.0, SVG Export Plug-In . SVG Version: 6.00 Build 0)  -->
<!DOCTYPE svg PUBLIC "-//W3C//DTD SVG 1.1//EN" "http://www.w3.org/Graphics/SVG/1.1/DTD/svg11.dtd">
<svg version="1.1" id="Capa_1" xmlns="http://www.w3.org/2000/svg" xmlns:xlink="http://www.w3.org/1999/xlink" x="0px" y="0px"
	 viewBox="0 0 486.948 486.948" style="enable-background:new 0 0 486.948 486.948;" xml:space="preserve">
<g id="XMLID_282_">
	<rect style="fill:#ffffff;" id="XMLID_290_" x="114.003" y="128.421" width="30.36" height="64.178"/>
	<path style="fill:#ffffff;" id="XMLID_287_" d="M84.771,75.871c0.258,24.34,20.016,43.994,44.414,43.994c24.398,0,44.168-19.654,44.445-43.994
		c8.604-0.227,15.547-7.214,15.547-15.882C189.176,26.913,162.284,0,129.184,0c-33.07,0-59.98,26.913-59.98,59.989
		C69.204,68.658,76.128,75.645,84.771,75.871z M97.273,29.806v4.52c0,4.407,3.561,7.977,7.961,7.977c4.419,0,7.991-3.57,7.991-7.977
		V19.056c2.55-1.005,5.222-1.789,7.979-2.294v17.563c0,4.407,3.561,7.977,7.98,7.977c4.413,0,7.992-3.57,7.992-7.977V16.762
		c2.769,0.505,5.412,1.295,7.973,2.294v15.269c0,4.407,3.561,7.977,7.98,7.977c4.413,0,7.979-3.57,7.979-7.977v-4.52
		c7.46,7.882,12.117,18.459,12.117,30.184H85.156C85.156,48.265,89.796,37.688,97.273,29.806z"/>
	<path style="fill:#ffffff;" id="XMLID_286_" d="M183.165,261.766h-0.061v-50.821l5.945,10.023c1.048,1.741,2.336,3.322,3.885,4.652l40.014,34.773
		l-3.598,12.03c-1.9,6.343,1.71,13.014,8.06,14.909c1.126,0.336,2.292,0.49,3.419,0.49c5.154,0,9.923-3.343,11.473-8.541
		l2.286-7.663c4.866-0.346,9.621-2.311,13.054-6.267c6.902-7.936,6.062-19.942-1.869-26.833l-1.017-0.876l17.454-58.434l19.433,5.81
		c1.563,0.466,3.254,0.297,4.689-0.484c1.44-0.775,2.5-2.087,2.966-3.65l11.007-36.799c0.967-3.249-0.884-6.68-4.144-7.654
		l-33.438-9.993c-1.225-0.361-2.512-0.337-3.701,0.058l-34.364,11.506c-1.881,0.628-3.345,2.151-3.928,4.07l-5.031,16.813
		c-0.963,3.249,0.889,6.68,4.131,7.655l19.445,5.801l-14.353,48.048L220.2,198.917l-36.226-61.053
		c-5.479-9.257-13.41-9.444-23.644-9.444c0,107.504,0,100.686,0,149.307h22.835c0,72.62,0,4.614,0,170.429h-45.669V328.111h-16.627
		v120.046h-45.64c0-165.339,0-98.002,0-170.429h22.816c0-48.597,0-41.788,0-149.307c-11.02,0-20.047,1.216-24.606,11.258
		L10.027,278.613c-4.382,9.555-0.159,20.838,9.395,25.195c9.512,4.351,20.819,0.186,25.189-9.402l30.667-67.153v34.513h-0.049
		c-8.832,0-15.972,7.146-15.972,15.962v170.429c0,8.815,7.14,15.962,15.972,15.962c0,12.604,10.216,22.829,22.816,22.829
		c12.606,0,22.823-10.226,22.823-22.829c3.059,0,5.895-0.852,8.315-2.335c2.433,1.482,5.282,2.335,8.311,2.335
		c0,12.604,10.234,22.829,22.835,22.829c12.606,0,22.835-10.226,22.835-22.829c8.801,0,15.959-7.146,15.959-15.962V277.728
		C199.124,268.912,191.965,261.766,183.165,261.766z"/>
	<path style="fill:#ffffff;" id="XMLID_285_" d="M473.206,152.941c-3.292-1.363-7.092-0.622-9.604,1.91l-42.238,42.213
		c-2.342,2.329-3.947,5.261-4.676,8.475l-10.266,45.22l27.75,37.492l3.481,4.719l-1.968,3.797l-20.622,39.722l21.027,26.855
		l-27.86-23.963l-1.483-1.28l0.742-2.547l11.405-39.223l-25.942-23.561l-40.124,25.559c-3.162,2.008-5.577,4.964-6.932,8.451
		l-15.21,39.557c-1.711,4.432-5.13,7.968-9.513,9.813l-49.376,20.813c-2.219,0.935-3.689,3.061-3.77,5.454l-1.544,44.794
		c-0.197,5.559-3.035,10.682-7.625,13.811l-50.989,34.689c-2.237,1.521-3.206,4.316-2.415,6.895
		c0.791,2.579,3.176,4.345,5.883,4.345h267.316V161.085C478.653,157.525,476.49,154.302,473.206,152.941z"/>
	<path style="fill:#ffffff;" id="XMLID_284_" d="M310.509,260.111l2.605,22.989c0.117,0.958,0.649,1.828,1.422,2.377c0.803,0.548,1.802,0.727,2.739,0.484
		l18.515-4.713c3.659-0.928,6.319-4.094,6.626-7.866l2.155-28.096c0.099-1.137-0.416-2.24-1.316-2.924
		c-0.92-0.692-2.127-0.87-3.193-0.459l-23.883,8.96C312.392,252.281,310.056,256.091,310.509,260.111z"/>
	<path style="fill:#ffffff;" id="XMLID_283_" d="M293.975,297.878c-1.097,0.282-1.998,1.112-2.341,2.2l-7.973,24.229
		c-1.257,3.842,0.257,8.047,3.671,10.206l19.568,12.362c0.834,0.515,1.832,0.652,2.752,0.377c0.919-0.273,1.69-0.941,2.078-1.821
		l7.931-17.395c1.543-3.441,0.759-7.492-2-10.079l-20.559-19.275C296.262,297.893,295.102,297.596,293.975,297.878z"/>
</g>
<g>
</g>
<g>
</g>
<g>
</g>
<g>
</g>
<g>
</g>
<g>
</g>
<g>
</g>
<g>
</g>
<g>
</g>
<g>
</g>
<g>
</g>
<g>
</g>
<g>
</g>
<g>
</g>
<g>
</g>
</svg>
