<?xml version="1.0" encoding="iso-8859-1"?>
<!-- Generator: Adobe Illustrator 16.0.0, SVG Export Plug-In . SVG Version: 6.00 Build 0)  -->
<!DOCTYPE svg PUBLIC "-//W3C//DTD SVG 1.1//EN" "http://www.w3.org/Graphics/SVG/1.1/DTD/svg11.dtd">
<svg version="1.1" id="Capa_1" xmlns="http://www.w3.org/2000/svg" xmlns:xlink="http://www.w3.org/1999/xlink" x="0px" y="0px"
	 width="424.823px" height="424.823px" viewBox="0 0 424.823 424.823" style="enable-background:new 0 0 424.823 424.823;"
	 xml:space="preserve">
<g>
	<g>
		<path style="fill:#ffffff;" d="M350.876,396.606c-6.619,4.591-11.847,8.217-23.136,8.217s-16.517-3.626-23.136-8.217
			c-7.568-5.25-16.988-11.783-34.534-11.783c-17.545,0-26.964,6.533-34.533,11.783c-6.619,4.591-11.846,8.217-23.134,8.217
			s-16.515-3.626-23.133-8.217c-7.568-5.25-16.987-11.783-34.532-11.783s-26.963,6.533-34.531,11.783
			c-6.618,4.591-11.845,8.217-23.131,8.217c-11.288,0-16.515-3.626-23.133-8.217c-7.568-5.25-16.987-11.783-34.532-11.783v20
			c11.288,0,16.515,3.626,23.133,8.217c7.568,5.249,16.987,11.783,34.532,11.783c17.544,0,26.963-6.534,34.531-11.783
			c6.618-4.591,11.845-8.217,23.132-8.217c11.288,0,16.515,3.626,23.133,8.217c7.568,5.249,16.987,11.783,34.533,11.783
			s26.964-6.534,34.533-11.783c6.617-4.591,11.846-8.217,23.134-8.217c11.289,0,16.517,3.626,23.136,8.217
			c7.569,5.25,16.988,11.783,34.534,11.783s26.965-6.533,34.534-11.783c6.619-4.591,11.847-8.217,23.136-8.217v-20
			C367.864,384.823,358.445,391.356,350.876,396.606z"/>
		<path style="fill:#ffffff;" d="M204.802,110.001c-3.577-9.133-8.077-22.535,7.608-37.755c0.647,13.375,14.069,13.99,11.351,36.793
			c6.231-2.136,6.231-2.136,9.188-3.782c17.285-9.612,20.39-25.204,7.64-42.896c-7.316-10.153-11.943-20.58-10.928-33.23
			c-4.206,4.27-5.393,9.443-6.743,17.128c-5.116-3.688,3.067-41.28-22.595-46.259c5.362,13.836,7.565,25.757-2.606,40.076
			c-0.668-5.423-3.255-12.264-8.834-17.183c-0.946,16.386,0.97,23.367-9.507,44.682c-2.945,8.901-5.02,17.634,0.533,26.418
			C185.394,102.675,194.596,108.206,204.802,110.001z"/>
		<path style="fill:#ffffff;" d="M158.154,377.595l6.139,0.762c0.412,0.052,0.821,0.105,1.228,0.163l7.974,1.12v-13.926h77.83v13.922l7.973-1.118
			c0.408-0.058,0.818-0.111,1.23-0.163l6.138-0.763v-11.878h12.244v-21.959h-133v21.959h12.244V377.595z"/>
		<polygon style="fill:#ffffff;" points="180.615,140.472 247.718,174.712 242.021,119.079 182.802,119.079 		"/>
		<polygon style="fill:#ffffff;" points="258.712,282.085 250.441,201.3 181.098,252.329 		"/>
		<polygon style="fill:#ffffff;" points="263.732,331.174 261.056,305.031 219.438,331.174 		"/>
		<polygon style="fill:#ffffff;" points="179.162,154.661 170.062,243.508 245.086,188.3 		"/>
		<polygon style="fill:#ffffff;" points="253.233,294.026 168.231,261.439 161.088,331.174 194.094,331.174 		"/>
	</g>
</g>
<g>
</g>
<g>
</g>
<g>
</g>
<g>
</g>
<g>
</g>
<g>
</g>
<g>
</g>
<g>
</g>
<g>
</g>
<g>
</g>
<g>
</g>
<g>
</g>
<g>
</g>
<g>
</g>
<g>
</g>
</svg>
