<?xml version="1.0" encoding="iso-8859-1"?>
<!-- Generator: Adobe Illustrator 16.0.0, SVG Export Plug-In . SVG Version: 6.00 Build 0)  -->
<!DOCTYPE svg PUBLIC "-//W3C//DTD SVG 1.1//EN" "http://www.w3.org/Graphics/SVG/1.1/DTD/svg11.dtd">
<svg version="1.1" id="Capa_1" xmlns="http://www.w3.org/2000/svg" xmlns:xlink="http://www.w3.org/1999/xlink" x="0px" y="0px"
	 width="411.144px" height="411.145px" viewBox="0 0 411.144 411.145" style="enable-background:new 0 0 411.144 411.145;"
	 xml:space="preserve">
<g>
	<g>
		<polygon style="fill:#ffffff;" points="224.413,0 172.273,0 170.347,22.961 229.427,59.709 		"/>
		<polygon style="fill:#ffffff;" points="239.109,174.949 231.827,88.246 170.772,143.013 		"/>
		<polygon style="fill:#ffffff;" points="169.068,38.189 161.056,133.545 227.113,74.293 		"/>
		<polygon style="fill:#ffffff;" points="369.473,133.951 356.325,140.197 355.037,184.135 386.043,162.42 		"/>
		<path style="fill:#ffffff;" d="M45.369,358.92c10.34,3.037,17.46,7.972,22.812,11.683c3.269,2.268,5.353,3.709,7.649,4.553v-83.724h8.77V283h89.742
			v8.432h8.77v78.896c0.132,0.092,0.267,0.187,0.397,0.275c5.975,4.146,7.988,5.543,14.584,5.543c6.597,0,8.609-1.396,14.584-5.541
			c0.291-0.203,0.592-0.41,0.896-0.621v-78.552h8.771V283h89.258v8.432h8.77v83.724c2.295-0.846,4.379-2.285,7.646-4.551
			c5.353-3.713,12.474-8.646,22.814-11.687v-67.486h8.771v-32.659h-9.017v-37.558h-48.494l38.127-26.701l-49.306-15.93l3.846,42.631
			h-8.66l-4.124-45.708l-25.272,12H233.73l-74.285-34.715l-2.917,34.715h-21.818v-34.715H80.712v68.424H46.1v37.558h-9.5v32.659
			h8.77L45.369,358.92L45.369,358.92z"/>
		<polygon style="fill:#ffffff;" points="347.603,144.338 292.993,170.27 346.338,187.506 		"/>
		<path style="fill:#ffffff;" d="M313.43,391.145c-11.289,0-16.518-3.625-23.137-8.217c-7.567-5.25-16.987-11.783-34.534-11.783
			c-17.545,0-26.963,6.533-34.532,11.783c-6.619,4.592-11.847,8.217-23.134,8.217c-11.288,0-16.515-3.625-23.133-8.217
			c-7.568-5.25-16.987-11.783-34.532-11.783s-26.963,6.533-34.531,11.783c-6.618,4.592-11.845,8.217-23.131,8.217
			c-11.288,0-16.515-3.625-23.133-8.217c-7.568-5.25-16.987-11.783-34.532-11.783v20c11.288,0,16.515,3.627,23.133,8.217
			c7.568,5.25,16.987,11.783,34.532,11.783c17.544,0,26.963-6.533,34.531-11.783c6.618-4.59,11.845-8.217,23.132-8.217
			c11.288,0,16.515,3.627,23.133,8.217c7.568,5.25,16.987,11.783,34.533,11.783c17.545,0,26.963-6.533,34.534-11.783
			c6.617-4.59,11.846-8.217,23.133-8.217c11.29,0,16.518,3.627,23.137,8.217c7.568,5.25,16.988,11.783,34.534,11.783
			s26.965-6.533,34.533-11.783c6.619-4.59,11.848-8.217,23.137-8.217v-20c-17.546,0-26.965,6.533-34.534,11.783
			C329.947,387.52,324.719,391.145,313.43,391.145z"/>
	</g>
</g>
<g>
</g>
<g>
</g>
<g>
</g>
<g>
</g>
<g>
</g>
<g>
</g>
<g>
</g>
<g>
</g>
<g>
</g>
<g>
</g>
<g>
</g>
<g>
</g>
<g>
</g>
<g>
</g>
<g>
</g>
</svg>
