<?xml version="1.0" encoding="iso-8859-1"?>
<!-- Generator: Adobe Illustrator 17.1.0, SVG Export Plug-In . SVG Version: 6.00 Build 0)  -->
<!DOCTYPE svg PUBLIC "-//W3C//DTD SVG 1.1//EN" "http://www.w3.org/Graphics/SVG/1.1/DTD/svg11.dtd">
<svg version="1.1" id="Capa_1" xmlns="http://www.w3.org/2000/svg" xmlns:xlink="http://www.w3.org/1999/xlink" x="0px" y="0px"
	 viewBox="0 0 512 512" style="enable-background:new 0 0 512 512;" xml:space="preserve">
<g>
	<path style="fill:#ffffff;" d="M504,184H376v-72c4.418,0,8-3.582,8-8s-3.582-8-8-8h-16c-4.418,0-8,3.582-8,8s3.582,8,8,8v72H152v-72c4.418,0,8-3.582,8-8
		s-3.582-8-8-8h-16c-4.418,0-8,3.582-8,8s3.582,8,8,8v72H8c-4.418,0-8,3.582-8,8v192c0,4.418,3.582,8,8,8s8-3.582,8-8
		c0-13.543,4.618-26.814,13.479-39.36c0.089,0.03,0.173,0.067,0.264,0.095c1.714,0.521,3.113,1.292,4.883,2.27
		c4.033,2.226,9.051,4.996,18.359,4.996c9.308,0,14.326-2.771,18.358-4.996C74.621,345.195,76.785,344,81.97,344
		c5.174,0,7.335,1.194,10.606,3.002c4.03,2.227,9.044,4.998,18.346,4.998c9.308,0,14.327-2.771,18.359-4.996
		c3.277-1.809,5.442-3.004,10.627-3.004c5.18,0,7.343,1.194,10.617,3.003c4.031,2.227,9.048,4.997,18.353,4.997
		c9.31,0,14.33-2.77,18.363-4.995c3.279-1.81,5.445-3.005,10.634-3.005c5.183,0,7.347,1.195,10.623,3.004
		c4.032,2.226,9.05,4.996,18.357,4.996c9.309,0,14.329-2.77,18.362-4.996c3.278-1.809,5.444-3.004,10.632-3.004
		c5.191,0,7.359,1.195,10.64,3.005c4.034,2.226,9.056,4.995,18.367,4.995c9.312,0,14.333-2.77,18.367-4.995
		c3.281-1.81,5.448-3.005,10.64-3.005s7.359,1.195,10.64,3.005c4.034,2.226,9.056,4.995,18.367,4.995
		c9.31,0,14.331-2.77,18.364-4.995c3.279-1.81,5.446-3.005,10.635-3.005c5.19,0,7.357,1.195,10.637,3.005
		c4.034,2.226,9.055,4.995,18.366,4.995c9.313,0,14.334-2.77,18.369-4.995c3.281-1.81,5.449-3.005,10.641-3.005
		c5.208,0,7.38,1.196,10.67,3.008c4.04,2.225,9.066,4.992,18.388,4.992c9.322,0,14.349-2.769,18.388-4.992
		c1.792-0.987,3.208-1.768,4.954-2.288c0.08-0.024,0.155-0.057,0.234-0.083C491.381,357.184,496,370.456,496,384
		c0,4.418,3.582,8,8,8s8-3.582,8-8V192C512,187.582,508.418,184,504,184z M496,200v16h-56v-16H496z M439.933,288.984
		c0.04-0.323,0.067-0.65,0.067-0.984v-56h16v66.61C450.96,295.286,445.605,292.073,439.933,288.984z M72,232v56
		c0,0.334,0.027,0.661,0.067,0.984c-5.672,3.089-11.027,6.302-16.067,9.626V232H72z M88,232h16v40c0,0.738,0.108,1.45,0.295,2.128
		c-5.586,2.171-11.021,4.47-16.295,6.894V232z M120,232h16v31.615c-5.436,1.519-10.772,3.144-16,4.874V232z M152,232h16v24
		c0,0.042,0.006,0.082,0.006,0.124c-5.409,1.037-10.747,2.168-16.006,3.396V232z M184,232h16v19.208
		c-5.388,0.628-10.72,1.353-16,2.16V232z M216,232h16v16.585c-5.371,0.261-10.705,0.612-16,1.046V232z M248,232h16v16.072
		c-2.661-0.043-5.326-0.072-8-0.072s-5.339,0.029-8,0.072V232z M280,232h16v17.631c-5.295-0.434-10.629-0.785-16-1.046V232z
		 M312,232h16v21.369c-5.28-0.808-10.612-1.532-16-2.16V232z M344,256v-24h16v27.52c-5.259-1.228-10.597-2.36-16.006-3.396
		C343.994,256.082,344,256.042,344,256z M376,232h16v36.488c-5.228-1.729-10.564-3.354-16-4.874V232z M408,272v-40h16v49.022
		c-5.275-2.423-10.709-4.723-16.295-6.894C407.892,273.45,408,272.738,408,272z M424,200v16h-48v-16H424z M360,200v16h-48v-16H360z
		 M296,200v16h-80v-16H296z M200,200v16h-48v-16H200z M136,200v16H88v-16H136z M72,216H16v-16h56V216z M16,232h24v78.42
		c-9.72,8.066-17.747,16.646-24,25.618V232z M469.613,332.992c-3.29,1.812-5.462,3.008-10.67,3.008s-7.381-1.196-10.67-3.008
		c-4.04-2.225-9.066-4.992-18.388-4.992c-9.312,0-14.333,2.77-18.368,4.995c-3.281,1.81-5.449,3.005-10.642,3.005
		c-5.19,0-7.357-1.195-10.637-3.005c-4.034-2.226-9.055-4.995-18.366-4.995c-9.311,0-14.331,2.77-18.365,4.995
		c-3.279,1.81-5.446,3.005-10.635,3.005c-5.191,0-7.359-1.195-10.64-3.005c-4.035-2.226-9.056-4.995-18.368-4.995
		c-9.312,0-14.333,2.77-18.367,4.995c-3.281,1.81-5.448,3.005-10.64,3.005s-7.359-1.195-10.64-3.005
		c-4.034-2.226-9.056-4.995-18.367-4.995c-9.31,0-14.33,2.77-18.363,4.996c-3.278,1.809-5.444,3.004-10.632,3.004
		c-5.184,0-7.348-1.195-10.624-3.004c-4.032-2.226-9.05-4.996-18.356-4.996c-9.31,0-14.33,2.77-18.364,4.995
		c-3.279,1.81-5.445,3.005-10.634,3.005c-5.18,0-7.343-1.194-10.618-3.003c-4.031-2.227-9.048-4.997-18.353-4.997
		c-9.308,0-14.327,2.771-18.359,4.996c-3.277,1.809-5.442,3.004-10.627,3.004c-5.175,0-7.336-1.194-10.607-3.002
		C96.286,330.771,91.271,328,81.97,328c-9.308,0-14.327,2.771-18.359,4.996C60.334,334.805,58.17,336,52.985,336
		c-5.185,0-7.35-1.195-10.627-3.004c-0.672-0.371-1.377-0.757-2.121-1.144c11.12-11.332,25.908-21.879,44.07-31.253
		C130.034,276.998,191.01,264,256,264s125.966,12.998,171.693,36.6c18.156,9.371,32.94,19.914,44.059,31.242
		C471.002,332.23,470.291,332.619,469.613,332.992z M472,310.42V232h24v104.038C489.747,327.066,481.72,318.486,472,310.42z"/>
	<path style="fill:#ffffff;" d="M342.873,368c-5.191,0-7.359-1.195-10.64-3.005c-4.035-2.226-9.056-4.995-18.368-4.995s-14.333,2.77-18.367,4.995
		c-3.281,1.81-5.448,3.005-10.64,3.005s-7.359-1.195-10.64-3.005c-4.034-2.226-9.055-4.995-18.367-4.995
		c-9.31,0-14.33,2.77-18.363,4.996c-3.278,1.809-5.444,3.004-10.632,3.004c-5.184,0-7.348-1.195-10.624-3.004
		c-4.032-2.226-9.05-4.996-18.356-4.996c-9.31,0-14.33,2.77-18.364,4.995c-3.279,1.81-5.445,3.005-10.634,3.005
		c-4.418,0-8,3.582-8,8s3.582,8,8,8c9.31,0,14.33-2.77,18.363-4.995c3.279-1.81,5.445-3.005,10.634-3.005
		c5.183,0,7.347,1.195,10.623,3.004c4.032,2.226,9.05,4.996,18.357,4.996c9.309,0,14.329-2.77,18.362-4.996
		c3.278-1.809,5.444-3.004,10.632-3.004c5.191,0,7.359,1.195,10.64,3.005c4.034,2.226,9.055,4.995,18.367,4.995
		s14.333-2.77,18.367-4.995c3.281-1.81,5.448-3.005,10.64-3.005c5.192,0,7.359,1.195,10.64,3.005
		c4.035,2.226,9.056,4.995,18.367,4.995c4.418,0,8-3.582,8-8S347.291,368,342.873,368z"/>
	<path style="fill:#ffffff;" d="M284.858,400c-5.191,0-7.359-1.195-10.64-3.005c-4.034-2.226-9.055-4.995-18.367-4.995c-9.31,0-14.33,2.77-18.363,4.996
		c-3.278,1.809-5.444,3.004-10.632,3.004c-4.418,0-8,3.582-8,8s3.582,8,8,8c9.309,0,14.329-2.77,18.362-4.996
		c3.278-1.809,5.444-3.004,10.632-3.004c5.191,0,7.359,1.195,10.64,3.005c4.034,2.226,9.056,4.995,18.367,4.995c4.418,0,8-3.582,8-8
		S289.277,400,284.858,400z"/>
</g>
<g>
</g>
<g>
</g>
<g>
</g>
<g>
</g>
<g>
</g>
<g>
</g>
<g>
</g>
<g>
</g>
<g>
</g>
<g>
</g>
<g>
</g>
<g>
</g>
<g>
</g>
<g>
</g>
<g>
</g>
</svg>
