<?xml version="1.0" encoding="iso-8859-1"?>
<!-- Generator: Adobe Illustrator 18.0.0, SVG Export Plug-In . SVG Version: 6.00 Build 0)  -->
<!DOCTYPE svg PUBLIC "-//W3C//DTD SVG 1.1//EN" "http://www.w3.org/Graphics/SVG/1.1/DTD/svg11.dtd">
<svg version="1.1" id="Capa_1" xmlns="http://www.w3.org/2000/svg" xmlns:xlink="http://www.w3.org/1999/xlink" x="0px" y="0px"
	 viewBox="0 0 466.135 466.135" style="enable-background:new 0 0 466.135 466.135;" xml:space="preserve">
<g>
	<path style="fill:#ffffff;" d="M42.29,426.228c0,3.866,3.134,7,7,7h232.086c3.866,0,7-3.134,7-7c0-3.866-3.134-7-7-7H49.29
		C45.424,419.228,42.29,422.361,42.29,426.228z"/>
	<path style="fill:#ffffff;" d="M402.659,278.036V7c0-0.043-0.006-0.072-0.007-0.113c-0.003-0.152-0.015-0.304-0.028-0.456
		c-0.002-0.025-0.004-0.055-0.007-0.078c-0.114-1.227-0.539-2.42-1.279-3.446C400.022,1.081,397.909,0,395.659,0h-12.891
		c-2.409,0-4.649,1.239-5.93,3.279L257.832,192.956H111.894c-11.074,0-20.084,9.009-20.084,20.083v67.419H80.458
		c-11.073,0-20.082,9.009-20.082,20.082v85.779h-6.395c-21.797,0-39.529,17.732-39.529,39.529v0.758
		c0,21.796,17.732,39.528,39.529,39.528h222.703c21.797,0,39.529-17.732,39.529-39.528v-0.758c0-21.797-17.732-39.529-39.529-39.529
		h-0.02l111.994-336.16v227.877c-27.598,3.457-49.023,27.052-49.023,55.571c0,30.892,25.132,56.025,56.023,56.025
		s56.023-25.133,56.023-56.025C451.683,305.088,430.257,281.493,402.659,278.036z M74.376,367.218h142.631c3.866,0,7-3.134,7-7
		s-3.134-7-7-7H74.376V300.54c0-3.354,2.729-6.082,6.082-6.082H98.81c3.866,0,7-3.134,7-7v-74.419c0-3.354,2.729-6.083,6.084-6.083
		h142.497l3.092,11.073H160.02c-3.866,0-7,3.134-7,7v102.459c0,3.866,3.134,7,7,7h89.125v11.265c0,4.155-3.381,7.536-7.537,7.536
		c-3.866,0-7,3.134-7,7c0,3.866,3.134,7,7,7c4.156,0,7.537,3.381,7.537,7.537v11.493H74.376V367.218z M167.02,320.488v-78.446
		l70.1,29.654v48.792H167.02z M302.214,425.849v0.758c0,14.076-11.452,25.528-25.529,25.528H53.981
		c-14.077,0-25.529-11.452-25.529-25.528v-0.758c0-14.077,11.452-25.529,25.529-25.529h222.703
		C290.762,400.319,302.214,411.772,302.214,425.849z M263.146,382.603v-7.776c0-5.598-2.147-10.703-5.659-14.537
		c3.513-3.834,5.659-8.939,5.659-14.536v-18.265c0-3.866-3.134-7-7-7h-5.025v-88.459h15.584c2.189,0,4.252-1.024,5.575-2.768
		c1.324-1.744,1.756-4.006,1.167-6.114l-5.552-19.887l117.271-186.91L263.146,382.603z"/>
</g>
<g>
</g>
<g>
</g>
<g>
</g>
<g>
</g>
<g>
</g>
<g>
</g>
<g>
</g>
<g>
</g>
<g>
</g>
<g>
</g>
<g>
</g>
<g>
</g>
<g>
</g>
<g>
</g>
<g>
</g>
</svg>
