<?xml version="1.0" encoding="iso-8859-1"?>
<!-- Generator: Adobe Illustrator 17.1.0, SVG Export Plug-In . SVG Version: 6.00 Build 0)  -->
<!DOCTYPE svg PUBLIC "-//W3C//DTD SVG 1.1//EN" "http://www.w3.org/Graphics/SVG/1.1/DTD/svg11.dtd">
<svg version="1.1" id="Capa_1" xmlns="http://www.w3.org/2000/svg" xmlns:xlink="http://www.w3.org/1999/xlink" x="0px" y="0px"
	 viewBox="0 0 190.617 190.617" style="enable-background:new 0 0 190.617 190.617;" xml:space="preserve">
<path style="fill:#ffffff;" d="M126.059,164.537c-1.104,0-2-0.896-2-2c0-15.853-12.897-28.75-28.75-28.75s-28.75,12.897-28.75,28.75c0,1.104-0.896,2-2,2
	c-1.104,0-2-0.896-2-2c0-18.059,14.691-32.75,32.75-32.75s32.75,14.691,32.75,32.75
	C128.059,163.641,127.164,164.537,126.059,164.537z M140.696,160.325c-0.785,0-1.529-0.465-1.849-1.235
	c-0.307-0.739-7.444-18.206-2.316-27.073c1.653-2.86,4.313-4.548,7.906-5.015c16.352-2.123,29.973,17.074,30.546,17.892
	c0.632,0.905,0.411,2.151-0.493,2.784c-0.904,0.635-2.151,0.413-2.785-0.491c-0.126-0.181-12.803-18.041-26.752-16.218
	c-2.325,0.302-3.947,1.3-4.96,3.051c-3.443,5.956,0.673,19.011,2.55,23.54c0.423,1.02-0.062,2.19-1.082,2.613
	C141.211,160.276,140.951,160.325,140.696,160.325z M49.925,160.325c-0.256,0-0.515-0.049-0.765-0.152
	c-1.021-0.422-1.505-1.592-1.083-2.613c1.875-4.533,5.987-17.6,2.548-23.542c-1.013-1.749-2.634-2.746-4.958-3.048
	c-13.958-1.82-26.626,16.038-26.752,16.218c-0.634,0.904-1.879,1.126-2.785,0.491c-0.904-0.633-1.125-1.879-0.493-2.784
	c0.573-0.818,14.2-20.01,30.546-17.892c3.592,0.467,6.252,2.154,7.906,5.015c5.128,8.868-2.01,26.334-2.316,27.074
	C51.453,159.86,50.709,160.325,49.925,160.325z M2.001,136.129c-0.838,0-1.618-0.53-1.897-1.368c-0.35-1.048,0.217-2.18,1.265-2.53
	c0.129-0.043,13.205-4.577,19.241-17.513c6.23-13.351,5.392-67.265,5.382-67.809c-0.002-0.133,0.009-0.265,0.032-0.391
	C26.646,33.24,62.014,26.08,95.309,26.08c33.296,0,68.664,7.16,69.287,20.439c0.023,0.126,0.034,0.258,0.032,0.391
	c-0.01,0.543-0.848,54.46,5.382,67.809c6.036,12.936,19.111,17.47,19.243,17.514c1.045,0.353,1.609,1.485,1.259,2.532
	s-1.481,1.61-2.527,1.262c-0.602-0.201-14.816-5.081-21.6-19.616c-5.216-11.176-5.81-46.558-5.809-62.145
	c-10.252,8.757-38.433,13.407-65.268,13.407s-55.015-4.65-65.267-13.407c0.001,15.587-0.593,50.968-5.809,62.145
	c-6.783,14.536-20.999,19.416-21.601,19.616C2.424,136.096,2.21,136.129,2.001,136.129z M95.309,30.08
	c-38.479,0-65.295,8.852-65.295,16.796S56.83,63.673,95.309,63.673s65.296-8.852,65.296-16.796S133.789,30.08,95.309,30.08z
	 M95.309,61.471c-23.383,0-58.17-3.887-58.17-14.595s34.787-14.595,58.17-14.595s58.171,3.887,58.171,14.595
	S118.692,61.471,95.309,61.471z M95.309,36.282c-35.565,0-54.17,6.897-54.17,10.595s18.604,10.595,54.17,10.595
	c35.566,0,54.171-6.897,54.171-10.595S130.876,36.282,95.309,36.282z M95.309,54.825c-11.574,0-22.469-0.625-30.679-1.761
	c-12.585-1.741-14.319-4.002-14.319-6.187s1.734-4.446,14.32-6.187c8.209-1.135,19.104-1.761,30.678-1.761s22.47,0.625,30.679,1.761
	c12.586,1.741,14.32,4.002,14.32,6.187s-1.734,4.446-14.32,6.187C117.779,54.199,106.884,54.825,95.309,54.825z M55.065,46.876
	c3.98,1.815,18.524,3.948,40.244,3.948c21.721,0,36.264-2.133,40.245-3.948c-3.981-1.815-18.524-3.948-40.245-3.948
	C73.59,42.929,59.047,45.061,55.065,46.876z M105.699,48.876h-22c-1.104,0-2-0.896-2-2s0.896-2,2-2h22c1.104,0,2,0.896,2,2
	S106.803,48.876,105.699,48.876z"/>
<g>
</g>
<g>
</g>
<g>
</g>
<g>
</g>
<g>
</g>
<g>
</g>
<g>
</g>
<g>
</g>
<g>
</g>
<g>
</g>
<g>
</g>
<g>
</g>
<g>
</g>
<g>
</g>
<g>
</g>
</svg>
